<?xml version="1.0" encoding="UTF-8"?>
<svg width="1280" height="720" viewBox="0 0 1280 720" fill="none" xmlns="http://www.w3.org/2000/svg">
  <defs>
    <linearGradient id="bg" x1="86" y1="42" x2="1186" y2="680" gradientUnits="userSpaceOnUse">
      <stop stop-color="#1e1b4b" />
      <stop offset="1" stop-color="#312e81" />
    </linearGradient>
    <radialGradient id="imageGlow" cx="0" cy="0" r="1" gradientUnits="userSpaceOnUse" gradientTransform="translate(220 126) rotate(48) scale(470 540)">
      <stop stop-color="#f5d76e" stop-opacity="0.95" />
      <stop offset="0.45" stop-color="#c4b5fd" stop-opacity="0.75" />
      <stop offset="1" stop-color="#312e81" stop-opacity="0.96" />
    </radialGradient>
    <linearGradient id="sheen" x1="248" y1="152" x2="914" y2="640" gradientUnits="userSpaceOnUse">
      <stop stop-color="rgba(255,255,255,0.18)" />
      <stop offset="1" stop-color="rgba(255,255,255,0)" />
    </linearGradient>
    <filter id="blurSoft" x="-20%" y="-20%" width="140%" height="140%">
      <feGaussianBlur stdDeviation="34" />
    </filter>
  </defs>

  <rect width="1280" height="720" fill="#050505" />
  <rect x="24" y="24" width="1232" height="672" rx="34" fill="url(#bg)" />
  <rect x="24" y="24" width="1232" height="672" rx="34" stroke="rgba(255,255,255,0.08)" />
  <circle cx="216" cy="112" r="126" fill="#c4b5fd" fill-opacity="0.10" filter="url(#blurSoft)" />
  <circle cx="1148" cy="610" r="144" fill="#f5d76e" fill-opacity="0.08" filter="url(#blurSoft)" />
  <path d="M46 668C204 612 374 590 578 612C804 636 1016 644 1236 598" stroke="rgba(255,255,255,0.08)" stroke-width="2" />
  <path d="M62 640C224 576 396 554 612 582C820 608 1020 612 1218 564" stroke="rgba(255,255,255,0.05)" stroke-width="2" />
  
      <g transform="translate(869, 129) rotate(-6 180 260)">
        <rect x="0" y="0" width="330" height="500" rx="34" fill="rgba(255,255,255,0.08)" />
        <rect x="14" y="14" width="302" height="472" rx="28" fill="url(#imageGlow)" />
        <circle cx="212" cy="138" r="108" fill="#c4b5fd" fill-opacity="0.22" />
        <circle cx="110" cy="214" r="144" fill="#f5d76e" fill-opacity="0.16" />
        <path d="M36 408C92 312 180 262 296 208V486H36V408Z" fill="rgba(8,8,8,0.50)" />
        <path d="M86 486C140 356 214 268 328 214V486H86Z" fill="rgba(8,8,8,0.28)" />
      </g>
    
  
      <g>
        <rect x="72" y="76" width="192" height="38" rx="19" fill="#c4b5fd" />
        <text x="168" y="100" text-anchor="middle" fill="#101010" font-family="Arial, Helvetica, sans-serif" font-size="18" font-weight="800" letter-spacing="2">CHAMPIONS</text>
        <text fill="#f9f9ff" font-family="Arial, Helvetica, sans-serif" font-size="64" font-weight="800" letter-spacing="-1.6"><tspan x="72" y="214">Finale di Coppa Italia</tspan><tspan x="72" y="284">Women: la data c’e, ora</tspan><tspan x="72" y="354">inizia l’attesa vera</tspan></text>
        <text fill="#ddd9ff" font-family="Arial, Helvetica, sans-serif" font-size="27" font-weight="500"><tspan x="72" y="518">Confermato giorno e orario della finale con la Roma: da</tspan><tspan x="72" y="550">qui parte la costruzione mentale dell’appuntamento.</tspan></text>
      </g>
    
  <text x="73" y="664" fill="rgba(255,255,255,0.38)" font-family="Arial, Helvetica, sans-serif" font-size="18" font-weight="700" letter-spacing="1.6">BIANCONERIHUB</text>
</svg>