<?xml version="1.0" encoding="UTF-8"?>
<svg width="1280" height="720" viewBox="0 0 1280 720" fill="none" xmlns="http://www.w3.org/2000/svg">
  <defs>
    <linearGradient id="bg" x1="86" y1="42" x2="1186" y2="680" gradientUnits="userSpaceOnUse">
      <stop stop-color="#7c2d12" />
      <stop offset="1" stop-color="#9a3412" />
    </linearGradient>
    <radialGradient id="imageGlow" cx="0" cy="0" r="1" gradientUnits="userSpaceOnUse" gradientTransform="translate(220 126) rotate(48) scale(470 540)">
      <stop stop-color="#ffedd5" stop-opacity="0.95" />
      <stop offset="0.45" stop-color="#fdba74" stop-opacity="0.75" />
      <stop offset="1" stop-color="#9a3412" stop-opacity="0.96" />
    </radialGradient>
    <linearGradient id="sheen" x1="248" y1="152" x2="914" y2="640" gradientUnits="userSpaceOnUse">
      <stop stop-color="rgba(255,255,255,0.18)" />
      <stop offset="1" stop-color="rgba(255,255,255,0)" />
    </linearGradient>
    <filter id="blurSoft" x="-20%" y="-20%" width="140%" height="140%">
      <feGaussianBlur stdDeviation="34" />
    </filter>
  </defs>

  <rect width="1280" height="720" fill="#050505" />
  <rect x="24" y="24" width="1232" height="672" rx="34" fill="url(#bg)" />
  <rect x="24" y="24" width="1232" height="672" rx="34" stroke="rgba(255,255,255,0.08)" />
  <circle cx="216" cy="112" r="126" fill="#fdba74" fill-opacity="0.10" filter="url(#blurSoft)" />
  <circle cx="1148" cy="610" r="144" fill="#ffedd5" fill-opacity="0.08" filter="url(#blurSoft)" />
  <path d="M46 668C204 612 374 590 578 612C804 636 1016 644 1236 598" stroke="rgba(255,255,255,0.08)" stroke-width="2" />
  <path d="M62 640C224 576 396 554 612 582C820 608 1020 612 1218 564" stroke="rgba(255,255,255,0.05)" stroke-width="2" />
  
      <g transform="translate(859, 99) rotate(6 180 260)">
        <rect x="0" y="0" width="330" height="500" rx="34" fill="rgba(255,255,255,0.08)" />
        <rect x="14" y="14" width="302" height="472" rx="28" fill="url(#imageGlow)" />
        <circle cx="212" cy="138" r="108" fill="#fdba74" fill-opacity="0.22" />
        <circle cx="110" cy="214" r="144" fill="#ffedd5" fill-opacity="0.16" />
        <path d="M36 408C92 312 180 262 296 208V486H36V408Z" fill="rgba(8,8,8,0.50)" />
        <path d="M86 486C140 356 214 268 328 214V486H86Z" fill="rgba(8,8,8,0.28)" />
      </g>
    
  
      <g>
        <rect x="72" y="76" width="192" height="38" rx="19" fill="#fdba74" />
        <text x="168" y="100" text-anchor="middle" fill="#101010" font-family="Arial, Helvetica, sans-serif" font-size="18" font-weight="800" letter-spacing="2">INTERVISTE</text>
        <text fill="#fffaf6" font-family="Arial, Helvetica, sans-serif" font-size="64" font-weight="800" letter-spacing="-1.6"><tspan x="72" y="214">Gazzoli a Small Talk:</tspan><tspan x="72" y="284">perche la Juve continua a</tspan><tspan x="72" y="354">investire nel racconto</tspan><tspan x="72" y="424">fuori dal campo</tspan></text>
        <text fill="#ffe1c4" font-family="Arial, Helvetica, sans-serif" font-size="27" font-weight="500"><tspan x="72" y="518">La presenza di Gianluca Gazzoli nel format del club e un</tspan><tspan x="72" y="550">altro tassello di una strategia editoriale sempre piu</tspan></text>
      </g>
    
  <text x="73" y="664" fill="rgba(255,255,255,0.38)" font-family="Arial, Helvetica, sans-serif" font-size="18" font-weight="700" letter-spacing="1.6">BIANCONERIHUB</text>
</svg>