<?xml version="1.0" encoding="UTF-8"?>
<svg width="1280" height="720" viewBox="0 0 1280 720" fill="none" xmlns="http://www.w3.org/2000/svg">
  <defs>
    <linearGradient id="bg" x1="86" y1="42" x2="1186" y2="680" gradientUnits="userSpaceOnUse">
      <stop stop-color="#060606" />
      <stop offset="1" stop-color="#1a1a1a" />
    </linearGradient>
    <radialGradient id="imageGlow" cx="0" cy="0" r="1" gradientUnits="userSpaceOnUse" gradientTransform="translate(220 126) rotate(48) scale(470 540)">
      <stop stop-color="#f9cf7a" stop-opacity="0.95" />
      <stop offset="0.45" stop-color="#f5a623" stop-opacity="0.75" />
      <stop offset="1" stop-color="#1a1a1a" stop-opacity="0.96" />
    </radialGradient>
    <linearGradient id="sheen" x1="248" y1="152" x2="914" y2="640" gradientUnits="userSpaceOnUse">
      <stop stop-color="rgba(255,255,255,0.18)" />
      <stop offset="1" stop-color="rgba(255,255,255,0)" />
    </linearGradient>
    <filter id="blurSoft" x="-20%" y="-20%" width="140%" height="140%">
      <feGaussianBlur stdDeviation="34" />
    </filter>
  </defs>

  <rect width="1280" height="720" fill="#050505" />
  <rect x="24" y="24" width="1232" height="672" rx="34" fill="url(#bg)" />
  <rect x="24" y="24" width="1232" height="672" rx="34" stroke="rgba(255,255,255,0.08)" />
  <circle cx="216" cy="112" r="126" fill="#f5a623" fill-opacity="0.10" filter="url(#blurSoft)" />
  <circle cx="1148" cy="610" r="144" fill="#f9cf7a" fill-opacity="0.08" filter="url(#blurSoft)" />
  <path d="M46 668C204 612 374 590 578 612C804 636 1016 644 1236 598" stroke="rgba(255,255,255,0.08)" stroke-width="2" />
  <path d="M62 640C224 576 396 554 612 582C820 608 1020 612 1218 564" stroke="rgba(255,255,255,0.05)" stroke-width="2" />
  
      <g transform="translate(730, 88)">
        <rect x="0" y="0" width="452" height="544" rx="38" fill="rgba(255,255,255,0.05)" />
        <rect x="16" y="16" width="420" height="512" rx="30" fill="url(#imageGlow)" />
        <circle cx="312" cy="128" r="118" fill="#f5a623" fill-opacity="0.22" />
        <circle cx="132" cy="246" r="164" fill="#f9cf7a" fill-opacity="0.18" />
        <path d="M48 452C116 318 198 232 390 148V528H48V452Z" fill="rgba(0,0,0,0.44)" />
        <path d="M172 528C218 354 286 252 422 176V528H172Z" fill="rgba(0,0,0,0.24)" />
      </g>
    
  
      <g>
        <rect x="74" y="430" width="604" height="214" rx="30" fill="rgba(5,5,5,0.62)" />
        <rect x="96" y="454" width="178" height="34" rx="17" fill="#f5a623" />
        <text x="185" y="476" text-anchor="middle" fill="#121212" font-family="Arial, Helvetica, sans-serif" font-size="16" font-weight="800" letter-spacing="2">CALCIO</text>
        <text fill="#ffffff" font-family="Arial, Helvetica, sans-serif" font-size="54" font-weight="800" letter-spacing="-1.2"><tspan x="96" y="542">Nazionali di marzo,</tspan><tspan x="96" y="600">quanta Juve in giro: il</tspan><tspan x="96" y="658">lato nascosto della</tspan><tspan x="96" y="716">sosta</tspan></text>
        <text fill="#d6d6d6" font-family="Arial, Helvetica, sans-serif" font-size="24" font-weight="500"><tspan x="96" y="622">Il club ha riepilogato i bianconeri convocati dalle</tspan><tspan x="96" y="650">rispettive selezioni: una buona notizia, ma non senza</tspan></text>
      </g>
    
  <text x="73" y="664" fill="rgba(255,255,255,0.38)" font-family="Arial, Helvetica, sans-serif" font-size="18" font-weight="700" letter-spacing="1.6">BIANCONERIHUB</text>
</svg>